<svg id="Layer_1" data-name="Layer 1" xmlns="http://www.w3.org/2000/svg" viewBox="0 0 1080 1080">
  <defs>
    <style>
      .cls-1 {
        fill: #f9f9f9;
      }

      .cls-2 {
        fill: #ff9700;
      }
    </style>
  </defs>
  <rect class="cls-1" width="1080" height="1080" rx="200"/>
  <g>
    <g>
      <path class="cls-2" d="M177.9,449c-19.39,59-9.62,109.61,41.74,147.39,32.67,24,77.77,25.5,107.1,10.57-8.66-7.45-17.1-14.86-24.41-23.42C284.75,563,273.27,540,274.2,512.19c1-30.54,20.22-56,47.09-62.77,28.81-7.29,59.64,7.9,73.32,37.23,15.22,32.64,9.5,63.83-8.74,93.56a93.23,93.23,0,0,1-20.57,23.47c-3.86,3.16-1.71,4.22,1,6a626.53,626.53,0,0,0,66,39.11c4.67,2.39,5.47,1.4,5.2-3.31-1.58-27-1.13-54-1.24-81.09,0-3-.23-6.14.78-9.14,1.73-5.14,5.26-7.75,10.65-7.41,5.17.31,8.15,3.41,9.31,8.32a16,16,0,0,1,.38,3.66C457,610.22,457,660.63,451,710.77c-.72,6.05-1.37,12.19-4.27,18.1-2.74-1.41-2.65-4.06-3.12-6.24-3.06-14-3.92-28.38-4.87-42.68-.18-2.74-.39-5-3.44-6.43-10.13-4.91-20.1-10.14-30.1-15.32-2.29-1.19-4.29-1.74-6.89-.4C373,670.87,347.86,684.13,325,701.24a221.33,221.33,0,0,0-43.9,43.58c-2.45,3.21-2.73,4.94,1.54,6.48,5,1.79,9.8,4.13,14.71,6.2,3.1,1.3,4.76,3.43,3.27,6.74s-4.17,3.55-7.23,2.2c-5.81-2.57-11.63-5.09-17.43-7.68-1.75-.78-3.41-1.66-4.66.74-1.52,2.89,1.1,3,2.55,3.64q7.56,3.4,15.22,6.57c3.15,1.32,5.66,3.26,4.2,6.93-1.57,3.93-4.75,3.79-8.2,2.15-5.17-2.47-10.54-4.54-15.61-7.18-3.5-1.81-4.78-.61-6.43,2.53-37.6,72-14.79,162.87,53.25,207,52.94,34.31,108.41,38,163.75,6.2,54.78-31.48,76.61-98.75,52.16-155-34.6-79.62-143.67-93.55-195.15-24.64-20.42,27.33-26.55,57.73-12.36,89.72,11.29,25.45,31.19,40.94,59.83,42.34,22.11,1.08,41.75-12.17,48.76-31.52,7.12-19.68.48-40-17.75-54.33-.64-.51-1.25-1.05-2.52-2.14,3.47.4,5.56,2,7.61,3.45,15.65,11.35,22.54,26.94,20.42,45.9-2.22,20-13.59,34-31.55,42.31-24.39,11.32-54.88,5.18-76.28-14.74C323.88,920,316.45,910,312,898.09c-1.71-4.57-3.65-4.89-8.05-3.7-16.31,4.42-31.22,1.34-44.2-9.8-.89-.77-2.09-1.4-2-3.28,14,2.22,27.54,1,40.6-4.9,4.91-2.19,6.79-4.79,6.58-10.56-1.67-46.78,28-90,74.53-109,78.76-32.33,168.63,20,179.76,104.57,9.55,72.61-36.74,140.38-109.76,160.67-99.26,27.6-203.77-38.16-222-140-12.16-67.81,10.37-124.68,57-173.14,27.12-28.22,59.33-48.84,97-60.33.94-.28,1.83-.71,2.72-1-.19-2.09-1.85-2.33-2.94-3-11.71-7.17-23.26-14.59-34.31-22.72-3-2.23-5.36-2.31-8.81-.77-67.38,30.06-146.06-3.68-170.19-73.07-10.24-29.46-9.37-58.74,3.26-87.44C172.81,456.63,174.4,452.62,177.9,449Zm206.57,77.09c-.47-18.23-5.35-33.79-18.34-46.17-22.11-21.07-54.76-14.74-67,13.22-7.25,16.61-5.46,33.26,1.43,49.45,9.27,21.79,25.94,37.4,44.16,51.64,2.56,2,4,.59,5.77-.89C371.65,575.59,383.43,553.14,384.47,526.13Z"/>
      <path class="cls-2" d="M455.81,430.5v0Z"/>
      <path class="cls-2" d="M867.43,559.31c-8,86.14-38.32,156.75-89.21,212.41H761.34C799,730.22,826.31,679,841.69,617c29.09-117.23,3.21-224.4-76.23-316-74.84-86.34-171.3-126.57-285.25-121.15C368.94,185.14,280.58,236,211.8,322.43a392.67,392.67,0,0,0-30.4,44.65c-1.09,1.85-1.78,4.05-4.44,5.62a125.56,125.56,0,0,1,12.2-27.2c60.07-101.56,148-163.12,265.19-178.51,119.65-15.71,224,19.62,309,105.68C841.49,351.81,877.76,448.36,867.43,559.31Z"/>
      <path class="cls-2" d="M387.84,808.16c-20.78,4.05-36.26,12.79-43.48,32.07,5.28-4,10.42-8.23,16.94-10.13,6.36-1.86,12.72-3,19.41-.29-1.19,2.62-3.55,1.73-5.29,2-13.69,1.76-24.87,7.73-32.87,19.2-1.06,1.53-2.68,3.39-1.59,5,1.42,2,3.3-.15,4.84-.72a61.61,61.61,0,0,1,35.61-2.52c2.15.48,4.38.84,6.38,3-2.46,1.33-4.85.67-7.07.56-11.93-.55-23.74.05-35.29,3.35-1.63.47-4.06,0-4.38,2.48-.29,2.24,1.67,3.09,3.21,4.06,11.27,7.13,23.66,9.88,36.87,9.53,1.52,0,3.21-.72,5.42,1.31-16,5.55-29.88,1.9-44.15-6.88,4.48,15,14.14,24.31,26.63,32.39-21.1-2.16-38.06-29.17-34.29-52.87C338.94,823.25,363.92,802.75,387.84,808.16Z"/>
      <path class="cls-2" d="M314.46,80.27q8.16,16.78,16.31,33.56c6,12.32,11.9,24.68,18.06,36.92,1.58,3.15.69,4.47-2.3,5.22-2.19.54-4.62,3.76-6.3-.85Q326.77,118,313.15,81Z"/>
      <path class="cls-2" d="M270.67,100.88l18.47,29.85c7.61,12.33,15.13,24.72,22.91,36.94,2.06,3.24,1,4.67-1.93,6-2.28,1-4.34,3.28-6.29-.81-10.95-23-22.09-46-33.14-69C270.47,103.42,270.67,102.75,270.67,100.88Z"/>
      <path class="cls-2" d="M972.45,635.14l-66.34-11.69c-2.82-.5-5.61-1.15-8.45-1.5-3.62-.45-5.92-.91-4.71-6s3.64-4.1,7-3.12q36.44,10.64,72.91,21.16Z"/>
      <path class="cls-2" d="M845.9,190.27c-1.4,4.32-3.49,5.72-5.09,7.46-14.63,15.94-29.37,31.78-43.93,47.79-2.53,2.78-4.13,3.63-7.1.41-2.64-2.86-3-4.4.23-7.13C808.29,223.14,826.39,207.26,845.9,190.27Z"/>
      <path class="cls-2" d="M773.94,128.72q-16.76,27.74-33.52,55.47c-1.7,2.8-3.65,5.48-5.06,8.41-1.76,3.65-3.44,4-7,1.69-3.75-2.46-3.09-4.14-.81-7.1,14.42-18.61,28.67-37.35,43-56,.8-1,1.74-2,2.61-3Z"/>
      <path class="cls-2" d="M977.4,587.18l-60-4.31c-4.69-.33-9.38-.81-14.08-1-3.75-.11-3.78-2.25-3.25-5,.49-2.5.19-5.42,4.5-4.6,24.27,4.64,48.57,9.11,72.87,13.65C977.45,586.4,977.42,586.79,977.4,587.18Z"/>
      <path class="cls-2" d="M454.63,48.89c3.9,24.44,7.72,48.88,11.79,73.29.64,3.86-1.24,4-3.94,4.19-2.94.22-5.5.85-5.64-3.79-.46-15.35-1.34-30.69-2-46q-.63-13.8-1.23-27.6Z"/>
      <path class="cls-2" d="M875.93,229.29c-17.87,15.94-35.78,31.83-53.56,47.86-2.72,2.45-4.26,1.45-5.72-1-1.06-1.8-4.48-3.28-.86-5.85q29.69-21,59.34-42.13Z"/>
      <path class="cls-2" d="M103,268.92l19.57,10.95c13.58,7.59,27.07,15.35,40.79,22.68,4.07,2.18,3.14,3.94,1.36,7-2,3.53-3.59,3.22-6.55,1-17.64-13-35.43-25.78-53.15-38.65a33.61,33.61,0,0,1-2.53-2.25Z"/>
      <path class="cls-2" d="M945.87,353.1l-26.56,12.22c-12.61,5.8-25.26,11.51-37.81,17.42-3.17,1.5-4.47.36-5.17-2.53-.55-2.25-3.31-4.77,1.25-6.23,22.16-7.07,44.27-14.28,66.42-21.41C944.3,352.47,944.73,352.77,945.87,353.1Z"/>
      <path class="cls-2" d="M597.08,58.52c-3.3,23.65-6.65,47.29-9.84,70.95-.5,3.67-2.43,3.55-5.14,2.94s-5.46-.53-4.34-4.73Q587,93.09,596.14,58.45Z"/>
      <path class="cls-2" d="M953.2,679.43l-39.79-11c-9.64-2.66-19.25-5.43-28.93-7.9-3.78-1-3.63-2.84-2.48-5.8,1-2.67,1.56-4.93,5.42-3.32,21.28,8.87,42.63,17.55,64,26.32C951.72,677.86,952,678.26,953.2,679.43Z"/>
      <path class="cls-2" d="M728.81,111.42q-8.41,18-16.83,35.9c-3.55,7.59-7.41,15.05-10.52,22.81-2.05,5.09-4.39,5.28-8.5,2.49-2.24-1.53-2.43-2.68-1-4.87q18-28.5,35.77-57.07Z"/>
      <path class="cls-2" d="M971,492.24c-21.37,2.93-42.75,5.79-64.1,8.84-4,.57-4.35-1.64-4.49-4.56-.11-2.49-.69-5,3.26-5,21.75.07,43.51,0,65.26,0Z"/>
      <path class="cls-2" d="M549.67,56.92c-.86,22-1.78,44.06-2.52,66.09-.15,4.46-2.93,3.39-5.5,3.27s-4.61-.27-4-4.15c3.69-21.72,7.1-43.48,10.61-65.23Z"/>
      <path class="cls-2" d="M805.06,166.61q-19.35,26.1-38.67,52.23c-1.65,2.24-3.29,2.52-4.79.38-1.26-1.78-6.18-2.44-3-5.82,15-16.09,30.26-32,45.42-47.89Z"/>
      <path class="cls-2" d="M906.21,761.73l-10.15-5.06c-15.37-7.71-30.71-15.49-46.14-23.06-3-1.49-3.53-3.08-1.47-5.5,1.44-1.69,1.51-5.89,5.57-3.14q26.38,17.84,52.81,35.61Z"/>
      <path class="cls-2" d="M878.89,799.62l-37.68-23.68c-4.67-2.94-9.26-6-14-8.77-3.25-1.86-2.37-3.66-.52-5.78,1.58-1.81,2.38-5.17,6-2.15q23.43,19.74,47,39.29C879.38,798.9,879.14,799.26,878.89,799.62Z"/>
      <path class="cls-2" d="M207.49,177.46c10.4,9.91,24.09,23,37.86,36,2.74,2.59.73,4.06-1.17,5.17-1.68,1-3.08,5-5.76,1.34C227.14,204.55,215.93,189.08,207.49,177.46Z"/>
      <path class="cls-2" d="M367.14,87.44c2.4,6,4.82,11.93,7.18,17.91,4.12,10.43,8,20.94,12.37,31.28,1.58,3.77.39,4.81-3.05,5.92s-5.06.85-5.94-3.06c-3.64-16.31-7.55-32.56-11.32-48.84a16.72,16.72,0,0,1-.17-2.93Z"/>
      <path class="cls-2" d="M682,101c-6,17.78-12.06,35.54-18,53.35-1.06,3.19-2.91,3.2-5,1.67-1.59-1.14-6.05-.32-4-4.37,8.56-17.09,17.32-34.08,26-51.11Z"/>
      <path class="cls-2" d="M411.57,76.21c4.88,17.19,9.72,34.4,14.68,51.58,1.2,4.13-1.56,4-4.2,4.81-3.38,1-4.78.13-5.2-3.46-1.61-13.76-3.43-27.5-5.17-41.25-.48-3.81-.93-7.63-1.39-11.44Z"/>
      <path class="cls-2" d="M960.92,538.8c-17.73.9-35.45,1.73-53.17,2.75-3.54.2-4.89-1-4.46-4.46.31-2.46-.68-5.59,3.84-5.08,16.83,1.91,33.67,3.65,50.5,5.49a29.06,29.06,0,0,1,3.39.77C961,538.45,961,538.62,960.92,538.8Z"/>
      <path class="cls-2" d="M244.41,148c11,13.66,21.94,27.39,33.07,41,2.45,3,1,4.32-1.44,5.51-1.81.9-3.62,4.45-5.87.58q-13.5-23.18-26.91-46.39Z"/>
      <path class="cls-2" d="M637.73,88.48c-3.85,17.12-7.81,34.22-11.47,51.38-.92,4.33-3.24,3.08-5.77,2.3-2.29-.72-5-.88-3.45-4.7,6.62-16.46,13.09-33,19.62-49.48Z"/>
      <path class="cls-2" d="M176.23,208.34c13.09,10.82,26.13,21.69,39.29,32.4,3,2.43.95,3.91-.68,5.27s-2.72,5.11-5.69,1.77q-17.07-19.25-34-38.56Z"/>
      <path class="cls-2" d="M502.5,69.34c1.37,17,2.68,34.09,4.16,51.12.31,3.66-1.61,4.09-4.4,3.92-2.34-.14-5.17.63-4.84-3.45,1.4-17.2,2.7-34.4,4-51.6Z"/>
      <path class="cls-2" d="M951.7,448c-16.72,4.28-33.45,8.52-50.16,12.87-4.3,1.12-3.46-2.35-4-4.33s-1.54-4.53,2.29-4.87c17.21-1.55,34.42-3.22,51.63-4.84C951.56,447.26,951.63,447.65,951.7,448Z"/>
      <path class="cls-2" d="M905.83,320.2c-13.76,8.57-27.53,17.11-41.25,25.75-3.26,2.06-3.9-.6-4.67-2.51s-3.95-4.12.25-5.84l45.13-18.44Z"/>
      <path class="cls-2" d="M882.94,281.29c-12.61,9.72-25.27,19.38-37.81,29.19-3.88,3-4.24-.84-5.71-2.56-1.9-2.22-2.29-3.92,1-5.62,14-7.21,27.81-14.66,41.7-22Z"/>
      <path class="cls-2" d="M913.08,713.44c-15.11-5.36-30.25-10.68-45.33-16.11-3.69-1.33-1.2-3.68-.38-5.4s.81-5.15,4.35-3.16q20.94,11.79,41.85,23.63C913.4,712.75,913.24,713.09,913.08,713.44Z"/>
      <path class="cls-2" d="M149.68,245.39,167.27,257c7,4.61,13.95,9.32,21,13.77,3.59,2.25,1.41,4-.19,5.75-1.4,1.54-2.19,4.93-5.47,1.79-11.16-10.7-22.47-21.25-33.72-31.85Z"/>
      <path class="cls-2" d="M936.43,405.15C922,410.56,907.5,415.9,893.1,421.41c-3.65,1.39-3.82-1.28-4.13-3.3s-3-4.84,1.45-5.68L936,403.84Z"/>
      <path class="cls-2" d="M278.72,807.42a8.6,8.6,0,0,1-8.48,8,8,8,0,0,1-7.66-8.6c.4-4.75,3.11-7.47,7.95-7.58A8.06,8.06,0,0,1,278.72,807.42Z"/>
      <path class="cls-2" d="M688.5,477.77C684.39,564.85,640.61,628.91,566.38,673a117.59,117.59,0,0,1-30,12.45c-4.18,1.1-5.28,3.17-5.45,7.26-.93,22.51-2.23,45-5.94,67.27a28,28,0,0,1-3.26,9.86c-3.8-11.42-4.45-21.88-5.2-32.23-4.1-57.25-4-114.6-3.62-172a21.22,21.22,0,0,1,1.77-8.36c1.7-4,4.57-6.2,9-6.2s7.25,2.35,8.91,6.31c1.54,3.67,1.75,7.53,1.66,11.44q-.94,44.55-1.83,89.08c-.06,3.21,0,6.4,0,11,10.47-6.18,20.26-11.59,29.68-17.56,55.51-35.24,92.37-84.16,103.08-149.54,10.5-64.1-7.25-119.77-59.93-160.55-46.91-36.3-110.18-36.62-155-2.83a106,106,0,0,0-10.52,9.05l0,0a110.35,110.35,0,0,0-23.29,32.36l0,0-.14.32c-29.13,61.51,6,132.05,70.23,140.17,45.16,5.72,86.54-25.57,93-69.44,6.71-45.32-34.54-82.32-77-69.09-39,12.12-53.81,58.8-29.86,94a36.75,36.75,0,0,1,3.14,5.07c-15.37-14.52-19.39-30.21-20.19-40.15a17.2,17.2,0,0,0,.13-2.94c-.1-2.37-.06-4.73.07-7.06a0,0,0,0,1,0,0c0-.06,0-.11,0-.15v-.05h0a65.75,65.75,0,0,1,47-58.57c30.42-8.95,62.47,3.59,79.18,31,19.78,32.44,12.82,77.15-16.39,105.22-52.12,50.07-138,32-167.45-35.23-24.86-56.71-3-123.71,51.39-157.42,52.73-32.67,121.6-28.23,171.87,12.22C669.09,366.12,691.35,417.53,688.5,477.77Z"/>
      <path class="cls-2" d="M455.81,430.5v0Z"/>
    </g>
    <path class="cls-2" d="M673.16,1029c-.22-.35-.32-.46-.32-.32q-1.71-2.35-3.42-4.38t-3.43-4.17l-4.7-5.13-4.7-5.14q-1.5-1.49-3.11-3a22.21,22.21,0,0,0-3.31-2.57q-3.42-1.92-6.63-4t-6.63-4.17l-5.77-3.85-2.57-1.93h-.21a1.23,1.23,0,0,0-.43-.53,1.78,1.78,0,0,1-.43-.32c-.14-.15-.21-.25-.21-.32s-.08-.18-.22-.32a36.49,36.49,0,0,1-2.24-5q-1-2.67-2-5.24A124.68,124.68,0,0,1,619,964.46q-1.5-7.15-2.78-14.44a12.27,12.27,0,0,1-.32-1.71c-.08-.56-.18-1.14-.32-1.71a311.63,311.63,0,0,1-3.43-39.67q-.42-19.77,0-39.88,0-7,.11-14.22t.11-14.22a4.26,4.26,0,0,0-1.07-2.46q-1.08-1.39-1.71-2.25-1.93-2.56-4-5c-1.36-1.64-2.82-3.24-4.38-4.82a15.21,15.21,0,0,0-1.29-1.49,15.55,15.55,0,0,1-1.28-1.5h64.13a65.15,65.15,0,0,1-4-10.54,31.73,31.73,0,0,1-1.07-6.14H555.86c-.14,0-.11.18.11.54s.42.72.64,1.08a10.43,10.43,0,0,0,.64,1c.21.29.32.37.32.22a48.08,48.08,0,0,0,5.13,6.28c.86,1,1.75,2,2.68,2.93s1.81,1.84,2.67,2.7c.29.29.71.69,1.28,1.19a2.42,2.42,0,0,0,1.5.76h17.11q-.44,18.18-.54,35.93t1,35.71a307.85,307.85,0,0,0,5.13,39.35q1.07,6.42,2.78,12.83a128.76,128.76,0,0,0,4.06,12.62,70.57,70.57,0,0,0,6.42,12.94,103.3,103.3,0,0,0,8.55,11.65q4.92,6.21,10.27,11.87t11.12,11c1.71,1.71,3.45,3.31,5.24,4.81s3.66,3,5.66,4.38q6.21,4.7,12.62,8.77t12.83,7.91c.57.29.86.32.86.11a2.63,2.63,0,0,0-.22-.86A8.16,8.16,0,0,0,673.16,1029Z"/>
  </g>
</svg>
