<svg id="Layer_1" data-name="Layer 1" xmlns="http://www.w3.org/2000/svg" viewBox="0 0 1080 750">
  <defs>
    <style>
      .cls-1 {
        fill: #ff9700;
      }
    </style>
  </defs>
  <g>
    <path class="cls-1" d="M181.34,536.54c-19.92,3.88-34.75,12.25-41.67,30.71,5.06-3.87,10-7.88,16.23-9.71,6.1-1.77,12.2-2.89,18.61-.28-1.15,2.52-3.41,1.67-5.07,1.88-13.12,1.69-23.84,7.4-31.51,18.39-1,1.46-2.56,3.24-1.52,4.74,1.36,2,3.16-.14,4.64-.68a59.12,59.12,0,0,1,34.13-2.42c2,.47,4.2.81,6.11,2.91-2.35,1.28-4.65.64-6.77.54-11.44-.53-22.75,0-33.83,3.21-1.56.45-3.88,0-4.2,2.38-.28,2.14,1.61,2.95,3.08,3.88,10.8,6.83,22.68,9.46,35.34,9.13,1.46,0,3.07-.7,5.19,1.25-15.29,5.32-28.63,1.82-42.31-6.59,4.29,14.41,13.55,23.28,25.52,31-20.22-2.07-36.48-27.94-32.87-50.63C134.47,551,158.41,531.36,181.34,536.54ZM68.91,528c-4.64.11-7.24,2.71-7.62,7.27a7.65,7.65,0,0,0,7.34,8.23,8.22,8.22,0,0,0,8.12-7.69A7.72,7.72,0,0,0,68.91,528ZM169.37,276.7c-14.2-13.52-35.18-9.47-43,8.49-4.65,10.65-3.5,21.34.92,31.73,6,14,16.67,24,28.38,33.15,1.64,1.29,2.58.38,3.7-.57,13.58-11.42,21.15-25.83,21.82-43.16C180.85,294.63,177.72,284.64,169.37,276.7Zm71,464.63c-95.13,26.42-195.3-36.54-212.8-134.08-11.65-64.93,9.94-119.38,54.58-165.78,26-27,56.86-46.76,93-57.76.9-.27,1.76-.68,2.61-1A2.44,2.44,0,0,0,177,381c-6.81-4.21-13.53-8.56-20-13.31-2-1.43-3.44-1.48-5.66-.49C108,386.52,57.48,364.87,42,320.33c-6.58-18.91-6-37.71,2.09-56.13,1.09-2.48,2.11-5.05,4.36-7.35C36,294.72,42.25,327.21,75.25,351.46c21,15.42,50,16.37,68.81,6.78a142.17,142.17,0,0,1-15.68-15c-11.3-13.2-18.67-28-18.07-45.82.66-19.61,13-35.93,30.25-40.3,18.51-4.67,38.33,5.08,47.11,23.9,9.78,20.95,6.11,41-5.61,60.05a59.9,59.9,0,0,1-13.22,15.07c-2.48,2-1.1,2.71.62,3.87a402.45,402.45,0,0,0,42.41,25.1c3,1.54,3.52.9,3.34-2.12-1-17.34-.72-34.7-.8-52a17.65,17.65,0,0,1,.51-5.87c1.1-3.3,3.37-5,6.84-4.76s5.23,2.19,6,5.34A9.77,9.77,0,0,1,228,328c-.22,32.34-.2,64.7-4,96.88-.47,3.88-.89,7.83-2.75,11.62-1.76-.91-1.7-2.6-2-4-2-9-2.52-18.22-3.13-27.4-.12-1.76-.26-3.18-2.22-4.13-5.18-2.51-10.3-5.15-15.41-7.8l.65.37h0L198,393c-2.2-1.14-4.12-1.67-6.61-.38-24.25,12.51-48.38,25.2-70.33,41.59A211.84,211.84,0,0,0,79,475.89c-2.34,3.08-2.61,4.74,1.48,6.2,4.79,1.72,9.39,4,14.09,5.94,3,1.25,4.56,3.29,3.14,6.46s-4,3.4-6.93,2.1c-5.57-2.45-11.15-4.87-16.7-7.34-1.69-.76-3.27-1.6-4.47.7-1.46,2.77,1,2.86,2.44,3.49,4.83,2.17,9.7,4.25,14.58,6.29,3,1.26,5.43,3.12,4,6.63-1.5,3.76-4.55,3.63-7.85,2.06-5-2.36-10.1-4.35-15-6.87-3.35-1.74-4.58-.59-6.15,2.42-36,68.95-14.18,155.93,51,198.15,50.74,32.85,103.89,36.4,156.94,5.94,52.5-30.15,73.42-94.55,50-148.44C286.49,483.4,182,470.05,132.62,536,113,562.2,107.16,591.3,120.77,621.94c10.81,24.36,29.89,39.19,57.33,40.53,21.2,1,40-11.65,46.74-30.18,6.83-18.84.46-38.3-17-52-.62-.48-1.2-1-2.42-2,3.33.38,5.33,1.87,7.3,3.3,15,10.87,21.59,25.79,19.57,44C230.15,644.59,219.26,658,202,666c-23.37,10.83-52.59,5-73.11-14.12-8.89-8.27-16-17.84-20.28-29.22-1.64-4.38-3.49-4.69-7.71-3.55-15.63,4.23-29.92,1.28-42.36-9.38-.86-.74-2-1.34-1.95-3.15,13.42,2.13,26.4.91,38.92-4.68,4.7-2.1,6.5-4.6,6.3-10.12-1.6-44.79,26.87-86.12,71.43-104.4,75.48-30.95,161.62,19.11,172.28,100.13C354.72,657,310.34,721.9,240.37,741.33ZM227,245v0Zm197.6-101.31C370,88.4,302.93,65.72,226.06,75.81,150.77,85.69,94.26,125.2,55.67,190.39a80.72,80.72,0,0,0-7.84,17.46c1.71-1,2.15-2.42,2.85-3.61a250.46,250.46,0,0,1,19.54-28.66c44.19-55.5,101-88.12,172.45-91.52,73.22-3.48,135.2,22.35,183.28,77.77,51.05,58.81,67.67,127.6,49,202.85-9.88,39.8-27.44,72.66-51.62,99.29h10.84c32.7-35.72,52.17-81,57.32-136.34C498.11,256.41,474.8,194.44,424.59,143.64ZM135.34,20.58q8.7,23.81,17.4,47.6c1.07,3,2.63.9,4,.55,1.92-.48,2.5-1.33,1.48-3.35-4-7.85-7.75-15.79-11.6-23.7q-5.25-10.77-10.48-21.54ZM108.05,35.29c7.1,14.76,14.26,29.48,21.29,44.26,1.26,2.63,2.58,1.18,4,.52,1.87-.83,2.56-1.75,1.23-3.83-5-7.84-9.82-15.8-14.72-23.71L108,33.37C108,34.57,107.91,35,108.05,35.29ZM559.2,375.6q-23.43-6.78-46.85-13.58c-2.14-.63-3.69-1.3-4.48,2s.7,3.53,3,3.82c1.82.22,3.62.64,5.43,1L559,376.31ZM441.72,121.9c-2.05,1.75-1.83,2.74-.14,4.58,1.91,2.06,2.93,1.52,4.56-.27,9.35-10.27,18.82-20.44,28.23-30.67,1-1.12,2.37-2,3.27-4.79C465.1,101.65,453.47,111.85,441.72,121.9Zm-10.78-71c-.57.63-1.17,1.22-1.68,1.89-9.21,12-18.37,24-27.63,36-1.47,1.9-1.89,3,.52,4.56,2.25,1.48,3.33,1.26,4.46-1.08.91-1.89,2.17-3.6,3.25-5.4Q420.65,69,431.41,51.24ZM562.18,344.77C546.57,341.86,531,339,515.36,336c-2.77-.53-2.58,1.34-2.89,2.95s-.32,3.12,2.08,3.19c3,.08,6,.39,9.06.61l38.52,2.76C562.14,345.27,562.16,345,562.18,344.77ZM225.56,0q.39,8.85.79,17.71c.45,9.85,1,19.69,1.31,29.55.09,3,1.73,2.57,3.62,2.43,1.74-.12,2.95-.21,2.53-2.69-2.61-15.66-5.07-31.36-7.57-47Zm270.86,115q-19.07,13.53-38.13,27c-2.33,1.65-.13,2.6.55,3.76.94,1.59,1.93,2.24,3.68.66q17.14-15.42,34.41-30.72ZM0,141.75c.54.48,1,1,1.62,1.44C13,151.45,24.44,159.66,35.77,168c1.9,1.4,2.91,1.6,4.21-.67,1.14-2,1.74-3.11-.87-4.51-8.81-4.71-17.48-9.69-26.21-14.56l-12.57-7Zm540.67,53.18c-14.23,4.57-28.44,9.2-42.68,13.74-2.93.94-1.16,2.55-.8,4,.45,1.86,1.28,2.59,3.32,1.63,8.07-3.8,16.19-7.47,24.3-11.19l17.06-7.84C541.14,195.05,540.86,194.87,540.67,194.93ZM317.16,6.13c-3.93,14.82-7.83,29.64-11.81,44.44-.72,2.7,1.11,2.66,2.79,3s3,.47,3.3-1.89c2.05-15.19,4.21-30.36,6.33-45.54ZM545.4,403.63c-13.69-5.62-27.41-11.2-41.08-16.89-2.49-1-2.82.42-3.49,2.13-.73,1.91-.83,3.11,1.59,3.73,6.23,1.59,12.4,3.36,18.59,5.07l25.57,7.06C545.79,404,545.63,403.73,545.4,403.63Zm-143.72-364Q390.2,58,378.7,76.29c-.89,1.41-.77,2.14.67,3.13,2.64,1.79,4.15,1.67,5.46-1.6,2-5,4.48-9.77,6.76-14.64q5.4-11.52,10.81-23ZM558,284.16c-14,0-28,0-41.93,0-2.54,0-2.17,1.59-2.1,3.19.09,1.87.29,3.29,2.88,2.92,13.72-1.95,27.46-3.79,41.19-5.67ZM286.42,5.14c-2.25,14-4.44,27.93-6.81,41.87-.42,2.49.82,2.59,2.54,2.67s3.44.76,3.53-2.1c.48-14.15,1.07-28.29,1.62-42.43Zm164.3,69.72c-9.75,10.23-19.55,20.41-29.19,30.73-2,2.18,1.13,2.6,1.94,3.74,1,1.37,2,1.19,3.08-.24q12.38-16.8,24.85-33.53Zm66.07,382q-17-11.43-33.93-22.87c-2.61-1.76-2.66.94-3.58,2-1.33,1.56-1,2.58.94,3.53,9.92,4.86,19.77,9.86,29.65,14.8l6.52,3.25ZM499.3,481.19q-15.1-12.6-30.21-25.23c-2.29-1.93-2.8.22-3.82,1.39-1.19,1.35-1.76,2.51.33,3.71,3.08,1.76,6,3.74,9,5.62l24.22,15.2Zm-412-371.38c1.72,2.36,2.62-.23,3.7-.86s2.51-1.65.75-3.32c-8.84-8.35-17.64-16.75-24.33-23.1C72.87,90,80.07,99.92,87.32,109.81Zm82.11-84.89a10.62,10.62,0,0,0,.1,1.88c2.43,10.45,4.94,20.88,7.28,31.35.56,2.51,1.6,2.68,3.82,2s3-1.38,2-3.8c-2.79-6.63-5.3-13.38-7.94-20.07-1.52-3.84-3.08-7.67-4.62-11.5Zm202.21,8.26C366.06,44.11,360.43,55,354.93,66c-1.31,2.6,1.56,2.07,2.58,2.81,1.37,1,2.56,1,3.24-1.07,3.8-11.43,7.69-22.84,11.55-34.25ZM197.75,17.69c.3,2.45.58,4.9.89,7.34,1.12,8.83,2.29,17.65,3.32,26.48.27,2.3,1.17,2.84,3.35,2.22,1.69-.49,3.46-.44,2.69-3.09-3.18-11-6.29-22.07-9.43-33.11ZM551.6,314.13a18.39,18.39,0,0,0-2.17-.5c-10.82-1.18-21.64-2.3-32.45-3.52-2.91-.33-2.27,1.68-2.46,3.26-.29,2.23.59,3,2.86,2.86,11.38-.65,22.77-1.19,34.16-1.76ZM90.43,64Q99.07,78.9,107.71,93.8c1.45,2.48,2.62.2,3.78-.37,1.54-.77,2.5-1.63.93-3.54-7.16-8.71-14.18-17.52-21.25-26.29ZM343.19,25.09c-4.19,10.59-8.34,21.19-12.6,31.76-1,2.45.75,2.56,2.22,3s3.11,1.31,3.7-1.47c2.36-11,4.9-22,7.37-33ZM46.64,102.91q10.94,12.38,21.87,24.75c1.91,2.15,2.66-.3,3.66-1.13s2.35-1.83.43-3.38c-8.45-6.88-16.83-13.86-25.24-20.8Zm209.69-89.8c-.86,11.05-1.7,22.09-2.6,33.13-.21,2.62,1.6,2.13,3.11,2.22,1.79.1,3-.17,2.83-2.52C258.72,35,257.88,24.06,257,13.13ZM545.49,255.46c-11.06,1-22.12,2.11-33.18,3.1-2.45.22-1.79,1.86-1.46,3.13s-.22,3.5,2.54,2.78c10.73-2.8,21.48-5.52,32.23-8.26Zm-29.69-82-29,11.84c-2.7,1.1-.64,2.55-.16,3.75s.91,2.93,3,1.61c8.82-5.55,17.67-11,26.5-16.53Zm-14.89-25c-8.93,4.73-17.82,9.51-26.8,14.14-2.1,1.09-1.85,2.18-.64,3.61.95,1.1,1.18,3.59,3.67,1.64,8.06-6.3,16.19-12.5,24.29-18.74Zm20.2,277.38q-13.44-7.59-26.88-15.17c-2.28-1.28-2.28.95-2.8,2s-2.12,2.61.25,3.46c9.69,3.49,19.41,6.9,29.12,10.34ZM29.82,126.79c7.23,6.81,14.49,13.58,21.67,20.44,2.1,2,2.61-.16,3.51-1.14s2.43-2.25.12-3.69c-4.56-2.86-9-5.89-13.52-8.84l-11.3-7.43ZM535.5,227.84l-29.26,5.51c-2.87.54-1.13,2.4-.93,3.65s.31,3,2.65,2.12c9.26-3.54,18.56-7,27.84-10.44ZM333.37,179c-32.3-26-76.55-28.82-110.43-7.85-34.94,21.64-49,64.64-33,101.05,18.94,43.15,74.11,54.75,107.59,22.61,18.77-18,23.24-46.72,10.54-67.54a44.56,44.56,0,0,0-50.88-19.89A42.19,42.19,0,0,0,227,245h0v0s0,.06,0,.1,0,0,0,0c-.09,1.49-.11,3-.05,4.53a10.22,10.22,0,0,1-.08,1.88c.52,6.39,3.1,16.45,13,25.78a24,24,0,0,0-2-3.26c-15.39-22.58-5.86-52.54,19.18-60.32,27.3-8.49,53.81,15.26,49.5,44.34-4.18,28.16-30.77,48.25-59.78,44.58-41.28-5.21-63.84-50.49-45.13-90l.09-.21v0a70.64,70.64,0,0,1,15-20.77l0,0a69.26,69.26,0,0,1,6.76-5.81c28.8-21.69,69.46-21.48,99.59,1.82,33.85,26.17,45.26,61.91,38.51,103-6.88,42-30.56,73.37-66.23,96C289.23,390.52,283,394,276.22,398c0-2.92,0-5,0-7q.58-28.59,1.18-57.18a17.7,17.7,0,0,0-1.07-7.35c-1.07-2.54-2.87-4-5.73-4a5.88,5.88,0,0,0-5.77,4,13.84,13.84,0,0,0-1.14,5.37c-.22,36.81-.3,73.62,2.33,110.38.49,6.64.9,13.35,3.34,20.68a18,18,0,0,0,2.1-6.33c2.38-14.29,3.22-28.73,3.81-43.18.11-2.62.82-3.95,3.51-4.66a75.25,75.25,0,0,0,19.26-8c47.69-28.29,75.82-69.42,78.46-125.31C378.34,236.63,364,203.62,333.37,179ZM227,245v0Z"/>
    <path class="cls-1" d="M1079.8,749.05a6.54,6.54,0,0,0-.52-1c-.2-.35-.3-.45-.3-.31q-1.65-2.25-3.28-4.2t-3.28-4l-4.51-4.92q-2.27-2.45-4.51-4.91c-1-1-2-1.91-3-2.87a21.48,21.48,0,0,0-3.18-2.45c-2.19-1.23-4.3-2.5-6.35-3.79s-4.17-2.63-6.36-4l-5.53-3.69-2.46-1.84h-.21a1.05,1.05,0,0,0-.41-.52,2,2,0,0,1-.41-.3c-.13-.14-.2-.24-.2-.31s-.07-.17-.2-.31a34.56,34.56,0,0,1-2.16-4.81q-.92-2.57-1.94-5a119.43,119.43,0,0,1-3.69-13.62q-1.44-6.86-2.67-13.82a13.51,13.51,0,0,1-.31-1.64,16.2,16.2,0,0,0-.3-1.64,295.91,295.91,0,0,1-3.28-38q-.42-18.93,0-38.19,0-6.75.1-13.61c.07-4.57.1-9.12.1-13.62a4.08,4.08,0,0,0-1-2.35c-.69-.89-1.23-1.61-1.64-2.15-1.23-1.64-2.5-3.24-3.79-4.82s-2.7-3.1-4.21-4.6a12.1,12.1,0,0,0-1.22-1.44,12.12,12.12,0,0,1-1.23-1.43h50.21c.13,0-.14-.48-.82-1.45s-1-1.38-.82-1.25a43.26,43.26,0,0,0-4.92-5.8,34.7,34.7,0,0,0-5.12-5.6q-.42-.42-1.23-1.14a2.34,2.34,0,0,0-1.44-.73H917.47c-.08,0-.08.08,0,.21H828a1.5,1.5,0,0,0-.71-.21H750.43c-.08,0-.08.08,0,.21H661a1.6,1.6,0,0,0-.73-.22H342.37c-.14,0-.1.17.1.52s.41.69.62,1,.41.65.61.93.31.35.31.21a46,46,0,0,0,4.92,6c.82,1,1.67,1.9,2.56,2.8l2.56,2.6c.28.27.69.65,1.23,1.13a2.34,2.34,0,0,0,1.44.73h16.39q-.41,17.4-.51,34.4t.92,34.19a296.05,296.05,0,0,0,4.92,37.68q1,6.14,2.67,12.28A120.52,120.52,0,0,0,385,679.53a67.46,67.46,0,0,0,6.15,12.39,99.31,99.31,0,0,0,8.2,11.16q4.71,5.94,9.83,11.37T419.84,725c1.64,1.64,3.31,3.17,5,4.61s3.52,2.83,5.43,4.2q6,4.5,12.1,8.39t12.29,7.58c.55.27.82.3.82.1a2.46,2.46,0,0,0-.2-.82,7.47,7.47,0,0,0-.51-1c-.21-.35-.31-.45-.31-.31q-1.65-2.25-3.28-4.2c-1.09-1.3-2.19-2.63-3.28-4l-4.51-4.92-4.51-4.91c-.95-1-1.94-1.91-3-2.87a20.49,20.49,0,0,0-3.18-2.45c-2.18-1.23-4.3-2.5-6.35-3.79s-4.17-2.63-6.35-4l-5.54-3.69-2.46-1.84h-.2a1.18,1.18,0,0,0-.41-.52,1.59,1.59,0,0,1-.41-.3c-.14-.14-.21-.24-.21-.31s-.07-.17-.2-.31a33.4,33.4,0,0,1-2.15-4.81q-.93-2.57-2-5a121.54,121.54,0,0,1-3.69-13.62q-1.44-6.86-2.66-13.82a13.51,13.51,0,0,1-.31-1.64,13.89,13.89,0,0,0-.31-1.64,297.71,297.71,0,0,1-3.28-38q-.4-18.93,0-38.19,0-6.75.1-13.61c.07-4.57.11-9.12.11-13.62a4.1,4.1,0,0,0-1-2.35l-1.64-2.15c-1.23-1.64-2.49-3.24-3.79-4.82s-2.7-3.1-4.2-4.6a13.14,13.14,0,0,0-1.23-1.44,12.12,12.12,0,0,1-1.23-1.43H564.74c-.19,8.1-.31,16.11-.4,24.08-.55-.37-1-.5-1.23-.33a56.6,56.6,0,0,1-15.17,5.12,133.74,133.74,0,0,1-15.88,2q-8.1.51-16.2.51a156.6,156.6,0,0,0-16.09.82,78.84,78.84,0,0,0-14.44,2.56,42.5,42.5,0,0,0-13.22,6.24,3.13,3.13,0,0,0,1,2.25,14.05,14.05,0,0,1,2.25,3.48,2.1,2.1,0,0,1,.52.72,1.78,1.78,0,0,0,.51.72c0,.14.13.34.41.61.68,1.23,1.3,2.46,1.84,3.69s1.1,2.45,1.64,3.68a71.08,71.08,0,0,1,4.1,14.13,55.3,55.3,0,0,1,.52,8.91,35.68,35.68,0,0,1-1.34,8.91,29.81,29.81,0,0,1-3.69,8.08,22.79,22.79,0,0,1-6.35,6.45,26.45,26.45,0,0,1-14.45,4.41A57.13,57.13,0,0,1,444,654.14c-1.51-.4-2.94-.81-4.31-1.22a26,26,0,0,1-4.1-1.64,23,23,0,0,1-.82-2.66c-.68-2.19-1.3-4.37-1.84-6.56s-1-4.43-1.44-6.75c-.41-3-.71-6-.92-8.91s-.44-5.9-.72-8.91c-.27-2-.44-4.16-.51-6.34a28.46,28.46,0,0,0-.92-6.35,1.37,1.37,0,0,1-.41-1,2.43,2.43,0,0,1-.61-.92,2.93,2.93,0,0,0-.62-.92,48.41,48.41,0,0,0-3.18-4.4c-1.16-1.43-2.28-2.83-3.38-4.2q-5.94-6.35-11.89-12.49a19,19,0,0,0-3.89-2.86c-.13-.28-.54-.41-1.23-.41v.61a6.1,6.1,0,0,0,1,1.74c.41.48.82,1,1.23,1.54a2.2,2.2,0,0,0,.21,1c.27,2.32.48,4.61.61,6.86s.28,4.54.41,6.86q.42,4.9.93,9.83a88.86,88.86,0,0,0,1.53,9.62,69.67,69.67,0,0,0,2.77,9.93,66.59,66.59,0,0,0,4.2,9.32,85.13,85.13,0,0,0,7.28,10.75q4,5,8.3,9.93,4.5,4.71,9.22,9.42A72.36,72.36,0,0,0,451,673.39a54.68,54.68,0,0,0,11.47,5.12,86.62,86.62,0,0,0,13.73,3.07,44.68,44.68,0,0,0,10.15-.31,25.69,25.69,0,0,0,9.53-3.37,21.94,21.94,0,0,0,6.66-6,29.6,29.6,0,0,0,4-7.89,35.45,35.45,0,0,0,1.74-8.9,42.39,42.39,0,0,0-.31-8.91,61,61,0,0,0-4.2-16.07,82.11,82.11,0,0,0-7.89-14.64,41,41,0,0,1,13.22-6.15,85,85,0,0,1,14.45-2.45,155.67,155.67,0,0,1,16-.82q8,0,16-.41c3-.16,6-.46,9-.88.15,4.25.34,8.49.59,12.75a296.05,296.05,0,0,0,4.92,37.68c.69,4.09,1.57,8.19,2.67,12.28a123.15,123.15,0,0,0,3.89,12.08,67.46,67.46,0,0,0,6.15,12.39,99.31,99.31,0,0,0,8.2,11.16q4.71,5.94,9.84,11.37T611.47,725c1.64,1.64,3.32,3.17,5,4.61s3.51,2.83,5.43,4.2q5.94,4.5,12.09,8.39t12.3,7.58c.54.27.82.3.82.1a2.28,2.28,0,0,0-.21-.82,7.47,7.47,0,0,0-.51-1c-.21-.35-.31-.45-.31-.31q-1.64-2.25-3.28-4.2t-3.28-4l-4.5-4.92q-2.26-2.45-4.51-4.91c-1-1-1.95-1.91-3-2.87a20.9,20.9,0,0,0-3.17-2.45c-2.19-1.23-4.31-2.5-6.36-3.79s-4.17-2.63-6.35-4l-5.53-3.69-2.46-1.84h-.21a1.11,1.11,0,0,0-.41-.52,1.78,1.78,0,0,1-.41-.3c-.14-.14-.2-.24-.2-.31s-.07-.17-.21-.31a33.4,33.4,0,0,1-2.15-4.81q-.93-2.57-2-5a123.72,123.72,0,0,1-3.69-13.62q-1.43-6.86-2.66-13.82a13.51,13.51,0,0,1-.31-1.64,13.89,13.89,0,0,0-.31-1.64,297.69,297.69,0,0,1-3.27-38q-.42-18.93,0-38.19,0-6.75.1-13.61c.06-4.57.1-9.12.1-13.62a4,4,0,0,0-1-2.35l-1.64-2.15c-1.22-1.64-2.49-3.24-3.79-4.82s-2.7-3.1-4.2-4.6a13.14,13.14,0,0,0-1.23-1.44A12.12,12.12,0,0,1,575,548.9h39.15q-.42,17.4-.51,34.4t.92,34.19a296.05,296.05,0,0,0,4.92,37.68q1,6.14,2.66,12.28a120.58,120.58,0,0,0,3.9,12.08,67.42,67.42,0,0,0,6.14,12.39,100.56,100.56,0,0,0,8.2,11.16q4.71,5.94,9.84,11.37T660.87,725c1.64,1.64,3.31,3.17,5,4.61s3.52,2.83,5.43,4.2q5.94,4.5,12.09,8.39t12.3,7.58c.55.27.82.3.82.1a2.46,2.46,0,0,0-.2-.82,6.54,6.54,0,0,0-.52-1c-.2-.35-.3-.45-.3-.31q-1.65-2.25-3.28-4.2t-3.28-4l-4.51-4.92q-2.27-2.45-4.51-4.91c-1-1-1.95-1.91-3-2.87a21.48,21.48,0,0,0-3.18-2.45c-2.19-1.23-4.3-2.5-6.35-3.79s-4.17-2.63-6.36-4l-5.53-3.69-2.46-1.84h-.21a1.05,1.05,0,0,0-.41-.52,1.74,1.74,0,0,1-.4-.3c-.14-.14-.21-.24-.21-.31s-.07-.17-.2-.31a34.56,34.56,0,0,1-2.16-4.81q-.91-2.57-1.94-5a119.43,119.43,0,0,1-3.69-13.62q-1.44-6.86-2.67-13.82a13.51,13.51,0,0,1-.31-1.64,16.2,16.2,0,0,0-.3-1.64,295.91,295.91,0,0,1-3.28-38q-.42-18.93,0-38.19,0-6.75.1-13.61c.07-4.57.1-9.12.1-13.62a4.08,4.08,0,0,0-1-2.35c-.69-.89-1.23-1.61-1.64-2.15-1.23-1.64-2.5-3.24-3.79-4.82s-2.7-3.1-4.2-4.6a13.14,13.14,0,0,0-1.23-1.44,12.12,12.12,0,0,1-1.23-1.43h50.15a1.68,1.68,0,0,0,.8.21H781.17q-.4,17.29-.51,34.19-.07,13.65.58,27.42a6.83,6.83,0,0,0-1.29-.6c-1.51-.27-3-.58-4.51-.92s-3-.72-4.51-1.13q-10.24-2.66-20.19-5.83t-20.19-6q-10.24-2.87-20.7-5a88,88,0,0,0-21.11-1.74,58.62,58.62,0,0,0-8.3,1,33.88,33.88,0,0,0-8.1,2.66,27,27,0,0,0-11.06,11A34.22,34.22,0,0,0,657.9,614a58.44,58.44,0,0,0-.93,10.45,53.14,53.14,0,0,0,.62,10.34,35.91,35.91,0,0,0,3.07,9.93,47.74,47.74,0,0,0,3.9,6.75,71.12,71.12,0,0,0,4.71,6.15A131.66,131.66,0,0,0,683.21,673c1.09,1.1,2.22,2.22,3.38,3.38a27.56,27.56,0,0,0,3.79,3.17,32.13,32.13,0,0,0,14.55,6.35,33,33,0,0,0,13.63-.82,31.26,31.26,0,0,0,12.2-6.34,23.4,23.4,0,0,0,7.17-10.65,20,20,0,0,0,1.13-7.27,31.12,31.12,0,0,0-1.13-7.47,32.53,32.53,0,0,0-3.69-8.19,31.15,31.15,0,0,0-2.15-3.38c-.75-1-1.54-2.08-2.36-3.18q-2.25-2.66-4.51-5.12l-4.5-4.91q-1.65-1.84-3.49-3.69a51.6,51.6,0,0,0-3.89-3.48,16.87,16.87,0,0,0-1.54-1.12,1.71,1.71,0,0,0-.72-.31c-.14,0-.07.28.21.82a57,57,0,0,1,2.56,5.43,24.16,24.16,0,0,1,1.54,5.63,32.55,32.55,0,0,1,.1,6.75,16.83,16.83,0,0,1-2,6.35,22.79,22.79,0,0,1-8.61,9.83,29.9,29.9,0,0,1-11.47,5,33.41,33.41,0,0,1-12.51.3,1.23,1.23,0,0,0-.2-.82,58.12,58.12,0,0,1-.62-11,49.52,49.52,0,0,1,1.64-11,28.77,28.77,0,0,1,8.61-14.74,25.88,25.88,0,0,1,7.28-4.5,34.33,34.33,0,0,1,8.3-2.25,62.15,62.15,0,0,1,8.81-.62c3,0,5.87.14,8.61.41q6.35.83,12.6,2.05t12.4,2.86q10.46,2.88,20.6,6.05c4.55,1.42,9.17,2.78,13.81,4.11.91,8.15,2.12,16.3,3.72,24.45q1,6.14,2.66,12.28a123.15,123.15,0,0,0,3.89,12.08,67.46,67.46,0,0,0,6.15,12.39,99.31,99.31,0,0,0,8.2,11.16q4.71,5.94,9.84,11.37T827.91,725c1.64,1.64,3.31,3.17,5,4.61s3.51,2.83,5.43,4.2q5.94,4.5,12.09,8.39t12.3,7.58c.54.27.82.3.82.1a2.28,2.28,0,0,0-.21-.82,5.71,5.71,0,0,0-.51-1c-.2-.35-.31-.45-.31-.31q-1.63-2.25-3.28-4.2t-3.27-4l-4.51-4.92q-2.26-2.45-4.51-4.91c-1-1-2-1.91-3-2.87a21.48,21.48,0,0,0-3.18-2.45c-2.19-1.23-4.3-2.5-6.35-3.79s-4.17-2.63-6.36-4l-5.53-3.69-2.46-1.84h-.21a1.05,1.05,0,0,0-.41-.52,2,2,0,0,1-.41-.3c-.13-.14-.2-.24-.2-.31s-.07-.17-.21-.31a34.53,34.53,0,0,1-2.15-4.81q-.91-2.57-1.95-5a121.48,121.48,0,0,1-3.68-13.62q-1.44-6.86-2.67-13.82a13.51,13.51,0,0,1-.31-1.64,16.2,16.2,0,0,0-.3-1.64,295.91,295.91,0,0,1-3.28-38q-.42-18.93,0-38.19,0-6.75.1-13.61c.07-4.57.1-9.12.1-13.62a4.08,4.08,0,0,0-1-2.35c-.69-.89-1.23-1.61-1.64-2.15-1.23-1.64-2.5-3.24-3.79-4.82s-2.7-3.1-4.21-4.6a13.14,13.14,0,0,0-1.23-1.44,13.27,13.27,0,0,1-1.06-1.22H948.21q-.4,17.29-.51,34.19-.09,13.65.57,27.42a6.74,6.74,0,0,0-1.28-.6c-1.51-.27-3-.58-4.51-.92s-3-.72-4.51-1.13q-10.26-2.66-20.19-5.83t-20.19-6q-10.25-2.87-20.7-5a88,88,0,0,0-21.11-1.74,58.44,58.44,0,0,0-8.3,1,33.88,33.88,0,0,0-8.1,2.66,27,27,0,0,0-11.06,11,34.55,34.55,0,0,0-3.39,9.83,59.37,59.37,0,0,0-.92,10.45,53.14,53.14,0,0,0,.62,10.34,35.58,35.58,0,0,0,3.07,9.93,48.65,48.65,0,0,0,3.89,6.75,73.26,73.26,0,0,0,4.72,6.15A131.66,131.66,0,0,0,850.25,673l3.38,3.38a27.56,27.56,0,0,0,3.79,3.17A32.13,32.13,0,0,0,872,685.88a33,33,0,0,0,13.63-.82,31.26,31.26,0,0,0,12.2-6.34A23.48,23.48,0,0,0,905,668.07a20,20,0,0,0,1.13-7.27,31.12,31.12,0,0,0-1.13-7.47,45.4,45.4,0,0,0-5.84-11.57c-.75-1-1.54-2.08-2.36-3.18-1.5-1.77-3-3.48-4.51-5.12l-4.51-4.91q-1.63-1.84-3.48-3.69a51.6,51.6,0,0,0-3.89-3.48,16.87,16.87,0,0,0-1.54-1.12,1.81,1.81,0,0,0-.72-.31c-.14,0-.07.28.21.82a57,57,0,0,1,2.56,5.43,23.65,23.65,0,0,1,1.53,5.63,31.89,31.89,0,0,1,.11,6.75,16.83,16.83,0,0,1-1.95,6.35,22.85,22.85,0,0,1-8.61,9.83,29.88,29.88,0,0,1-11.48,5,33.35,33.35,0,0,1-12.5.3,1.23,1.23,0,0,0-.2-.82,57.29,57.29,0,0,1-.62-11,48.94,48.94,0,0,1,1.64-11,28.71,28.71,0,0,1,8.61-14.74,25.74,25.74,0,0,1,7.28-4.5,34.33,34.33,0,0,1,8.3-2.25,62.15,62.15,0,0,1,8.81-.62q4.5,0,8.61.41,6.35.83,12.6,2.05t12.4,2.86q10.46,2.88,20.6,6.05c4.55,1.42,9.16,2.78,13.81,4.11.9,8.15,2.12,16.3,3.71,24.45.69,4.09,1.57,8.19,2.67,12.28a123.15,123.15,0,0,0,3.89,12.08,67.46,67.46,0,0,0,6.15,12.39,99.31,99.31,0,0,0,8.2,11.16q4.71,5.94,9.84,11.37T994.94,725c1.64,1.64,3.32,3.17,5,4.61s3.51,2.83,5.43,4.2q5.94,4.5,12.09,8.39t12.3,7.58c.54.27.82.3.82.1a2.28,2.28,0,0,0-.21-.82,7.47,7.47,0,0,0-.51-1c-.21-.35-.31-.45-.31-.31q-1.63-2.25-3.28-4.2t-3.28-4l-4.51-4.92-4.5-4.91c-1-1-2-1.91-3-2.87a20.9,20.9,0,0,0-3.17-2.45c-2.19-1.23-4.31-2.5-6.36-3.79s-4.17-2.63-6.35-4l-5.53-3.69-2.46-1.84H987a1.11,1.11,0,0,0-.41-.52,1.78,1.78,0,0,1-.41-.3c-.14-.14-.2-.24-.2-.31s-.07-.17-.21-.31a33.4,33.4,0,0,1-2.15-4.81q-.93-2.57-2-5a123.72,123.72,0,0,1-3.69-13.62q-1.42-6.86-2.66-13.82a13.51,13.51,0,0,1-.31-1.64,13.89,13.89,0,0,0-.31-1.64,299.54,299.54,0,0,1-3.28-38q-.4-18.93,0-38.19,0-6.75.11-13.61c.06-4.57.1-9.12.1-13.62a4,4,0,0,0-1-2.35l-1.64-2.15c-1.22-1.64-2.49-3.24-3.79-4.82s-2.7-3.1-4.2-4.6a13.14,13.14,0,0,0-1.23-1.44,13.27,13.27,0,0,1-1.06-1.22h39q-.4,17.29-.5,34.19t.92,34.19a296.05,296.05,0,0,0,4.92,37.68q1,6.14,2.66,12.28a120.58,120.58,0,0,0,3.9,12.08,66.79,66.79,0,0,0,6.14,12.39,100.56,100.56,0,0,0,8.2,11.16q4.71,5.94,9.84,11.37T1044.34,725c1.64,1.64,3.31,3.17,5,4.61s3.52,2.83,5.43,4.2q5.94,4.5,12.09,8.39t12.3,7.58c.54.27.82.3.82.1A2.46,2.46,0,0,0,1079.8,749.05ZM670.71,655.78l-.21-.41.41.41Zm167,0-.2-.41.41.41Z"/>
  </g>
</svg>
