<svg id="Layer_1" data-name="Layer 1" xmlns="http://www.w3.org/2000/svg" viewBox="0 0 1080 868">
  <defs>
    <style>
      .cls-1 {
        fill: #ff9700;
      }
    </style>
  </defs>
  <g>
    <g>
      <path class="cls-1" d="M66.56,353.62c-17.12,52.13-8.49,96.86,36.87,130.24,28.84,21.23,68.67,22.55,94.57,9.34-7.64-6.57-15.09-13.12-21.56-20.69-15.52-18.18-25.66-38.51-24.83-63.09.91-27,17.85-49.46,41.58-55.47,25.44-6.44,52.67,7,64.75,32.9,13.44,28.85,8.38,56.42-7.72,82.68a82.82,82.82,0,0,1-18.16,20.75c-3.41,2.79-1.51,3.72.84,5.32a555.58,555.58,0,0,0,58.29,34.56c4.13,2.11,4.84,1.23,4.6-2.92-1.4-23.87-1-47.78-1.1-71.67,0-2.7-.2-5.42.69-8.07,1.52-4.55,4.64-6.85,9.4-6.56,4.57.28,7.2,3,8.23,7.36a13.42,13.42,0,0,1,.33,3.23c-.31,44.53-.28,89.07-5.58,133.38-.64,5.35-1.21,10.78-3.77,16-2.42-1.25-2.34-3.59-2.75-5.51-2.71-12.43-3.46-25.08-4.3-37.72-.16-2.43-.35-4.38-3.05-5.68-8.94-4.34-17.74-9-26.57-13.54-2-1.05-3.8-1.54-6.09-.36-22.34,11.55-44.58,23.27-64.8,38.39A196.19,196.19,0,0,0,157.66,615c-2.16,2.84-2.4,4.37,1.37,5.73,4.41,1.58,8.65,3.65,13,5.47,2.75,1.16,4.2,3,2.89,6s-3.68,3.14-6.38,2c-5.13-2.27-10.27-4.5-15.39-6.78-1.55-.7-3-1.47-4.12.64-1.34,2.56,1,2.65,2.25,3.23,4.45,2,8.94,3.92,13.44,5.8,2.78,1.16,5,2.88,3.71,6.12-1.39,3.47-4.19,3.35-7.24,1.9-4.57-2.18-9.31-4-13.79-6.34-3.08-1.6-4.22-.54-5.67,2.24-33.21,63.64-13.06,143.92,47,182.89,46.75,30.32,95.73,33.59,144.61,5.48,48.37-27.83,67.65-87.27,46.06-137-30.55-70.36-126.87-82.68-172.33-21.78-18,24.15-23.46,51-10.92,79.29,10,22.49,27.54,36.18,52.83,37.41,19.53,1,36.87-10.75,43.06-27.85,6.29-17.39.43-35.36-15.67-48-.57-.44-1.1-.92-2.23-1.88a13.19,13.19,0,0,1,6.73,3c13.82,10,19.89,23.81,18,40.57-2,17.64-12,30-27.87,37.39-21.53,10-48.46,4.57-67.36-13-8.19-7.64-14.76-16.47-18.68-27-1.51-4-3.22-4.32-7.11-3.27-14.4,3.91-27.57,1.19-39-8.66-.79-.68-1.85-1.23-1.8-2.9,12.37,2,24.32.84,35.86-4.32,4.33-1.94,6-4.25,5.81-9.34-1.48-41.34,24.76-79.49,65.82-96.36C314.08,597,393.45,643.23,403.28,718c8.43,64.16-32.45,124-96.93,142-87.66,24.39-180-33.72-196.07-123.76-10.74-59.93,9.15-110.18,50.29-153,24-24.93,52.39-43.16,85.69-53.31.83-.25,1.62-.63,2.41-.93-.18-1.84-1.63-2.06-2.6-2.65-10.34-6.34-20.54-12.89-30.3-20.08-2.68-2-4.73-2-7.78-.68C148.49,532.15,79,502.33,57.7,441c-9-26-8.27-51.91,2.88-77.28C62.07,360.32,63.47,356.78,66.56,353.62ZM249,421.75c-.42-16.12-4.72-29.87-16.19-40.81-19.53-18.61-48.36-13-59.14,11.69-6.4,14.67-4.82,29.38,1.26,43.69,8.19,19.26,22.91,33.06,39,45.64,2.25,1.77,3.55.52,5.09-.78C237.66,465.45,248.07,445.61,249,421.75Z"/>
      <path class="cls-1" d="M312,337.23v0Z"/>
      <path class="cls-1" d="M675.48,451.07c-7.08,76.12-33.84,138.52-78.78,187.7H581.79c33.24-36.67,57.38-81.91,71-136.7,25.7-103.6,2.85-198.3-67.31-279.28-66.09-76.3-151.28-111.85-251.9-107.06-98.26,4.68-176.29,49.59-237,126a345.54,345.54,0,0,0-26.84,39.46c-1,1.63-1.58,3.58-3.93,5a111.2,111.2,0,0,1,10.78-24c53-89.76,130.7-144.15,234.18-157.75,105.66-13.89,197.8,17.34,272.86,93.39C652.57,267.69,684.6,353,675.48,451.07Z"/>
      <path class="cls-1" d="M252,671c-18.35,3.59-32,11.31-38.4,28.35,4.66-3.57,9.2-7.27,15-9s11.24-2.66,17.14-.25c-1,2.31-3.13,1.53-4.67,1.73-12.09,1.56-22,6.83-29,17-.94,1.35-2.37,3-1.41,4.38,1.26,1.8,2.91-.13,4.28-.63a54.37,54.37,0,0,1,31.44-2.23c1.9.43,3.87.75,5.63,2.69-2.16,1.18-4.28.59-6.24.49-10.53-.49-21,0-31.16,3-1.44.42-3.58,0-3.87,2.2-.26,2,1.48,2.72,2.83,3.58,9.95,6.3,20.9,8.74,32.57,8.42,1.34,0,2.83-.64,4.78,1.16-14.09,4.91-26.38,1.68-39-6.08,4,13.3,12.49,21.49,23.52,28.63-18.63-1.91-33.61-25.79-30.29-46.73C208.77,684.31,230.83,666.2,252,671Z"/>
      <path class="cls-1" d="M187.16,27.73q7.2,14.82,14.41,29.66c5.29,10.88,10.5,21.81,15.94,32.62,1.4,2.78.61,4-2,4.61-1.94.48-4.08,3.33-5.56-.75Q198,61.08,186,28.34Z"/>
      <path class="cls-1" d="M148.48,45.94,164.8,72.32C171.52,83.21,178.16,94.16,185,105c1.82,2.86.87,4.13-1.7,5.28-2,.9-3.84,2.9-5.56-.72-9.67-20.35-19.51-40.62-29.26-60.93C148.31,48.18,148.48,47.6,148.48,45.94Z"/>
      <path class="cls-1" d="M768.22,518.08l-58.58-10.33c-2.49-.44-5-1-7.46-1.33-3.21-.39-5.23-.8-4.17-5.26s3.22-3.62,6.17-2.76q32.18,9.41,64.38,18.71C768.45,517.43,768.33,517.75,768.22,518.08Z"/>
      <path class="cls-1" d="M656.47,124.94c-1.24,3.81-3.08,5.05-4.5,6.59-12.92,14.08-25.94,28.09-38.8,42.23-2.23,2.46-3.64,3.21-6.26.36-2.33-2.53-2.62-3.88.2-6.3C623.25,154,639.23,140,656.47,124.94Z"/>
      <path class="cls-1" d="M592.92,70.55q-14.8,24.51-29.6,49c-1.5,2.48-3.22,4.85-4.47,7.44-1.56,3.22-3,3.52-6.14,1.49-3.31-2.17-2.73-3.66-.71-6.27,12.73-16.45,25.32-33,38-49.53.7-.92,1.53-1.74,2.31-2.61Z"/>
      <path class="cls-1" d="M772.59,475.69l-53-3.8c-4.14-.3-8.29-.72-12.44-.84-3.3-.1-3.33-2-2.87-4.39.44-2.21.17-4.79,4-4.06,21.43,4.1,42.9,8,64.35,12.06C772.63,475,772.61,475.35,772.59,475.69Z"/>
      <path class="cls-1" d="M310.94,0c3.44,21.59,6.81,43.2,10.41,64.76.57,3.41-1.09,3.53-3.47,3.71-2.61.19-4.86.75-5-3.35-.42-13.57-1.19-27.12-1.81-40.68Q310.54,12.24,310,.05Z"/>
      <path class="cls-1" d="M683,159.42q-23.67,21.12-47.3,42.29c-2.4,2.17-3.75,1.28-5-.91-.93-1.59-4-2.9-.75-5.18q26.21-18.59,52.4-37.22Z"/>
      <path class="cls-1" d="M.45,194.45l17.28,9.66c12,6.72,23.91,13.57,36,20.06,3.59,1.92,2.77,3.47,1.2,6.2-1.79,3.12-3.17,2.85-5.78.92-15.58-11.48-31.29-22.78-46.94-34.16a29.76,29.76,0,0,1-2.23-2Z"/>
      <path class="cls-1" d="M744.74,268.84l-23.45,10.79C710.16,284.75,699,289.8,687.9,295c-2.8,1.32-3.94.32-4.57-2.24-.48-2-2.92-4.22,1.11-5.5,19.57-6.26,39.1-12.62,58.65-18.92C743.36,268.28,743.74,268.54,744.74,268.84Z"/>
      <path class="cls-1" d="M436.74,8.51c-2.92,20.89-5.88,41.79-8.7,62.7-.43,3.24-2.14,3.13-4.53,2.59s-4.83-.47-3.83-4.18q8.19-30.57,16.23-61.18Z"/>
      <path class="cls-1" d="M751.22,557.22l-35.14-9.73c-8.51-2.35-17-4.8-25.55-7-3.34-.86-3.2-2.51-2.18-5.13.91-2.36,1.37-4.36,4.78-2.94,18.79,7.84,37.65,15.51,56.47,23.26C749.91,555.83,750.13,556.18,751.22,557.22Z"/>
      <path class="cls-1" d="M553.06,55.25Q545.64,71.12,538.2,87c-3.14,6.71-6.54,13.3-9.29,20.16-1.81,4.5-3.88,4.67-7.5,2.2-2-1.36-2.15-2.37-.93-4.31q15.87-25.17,31.59-50.43Z"/>
      <path class="cls-1" d="M766.9,391.79c-18.87,2.59-37.75,5.12-56.61,7.81-3.55.51-3.84-1.44-4-4-.1-2.21-.61-4.41,2.88-4.4,19.21.06,38.42,0,57.63,0Z"/>
      <path class="cls-1" d="M394.87,7.09c-.76,19.47-1.57,38.94-2.23,58.41-.13,3.94-2.59,3-4.85,2.89s-4.08-.24-3.5-3.67c3.26-19.19,6.27-38.42,9.37-57.64Z"/>
      <path class="cls-1" d="M620.4,104q-17.08,23.07-34.15,46.17c-1.45,2-2.9,2.22-4.23.33-1.12-1.57-5.46-2.15-2.67-5.15,13.25-14.21,26.72-28.23,40.11-42.31Z"/>
      <path class="cls-1" d="M709.72,629.94l-9-4.47c-13.57-6.81-27.11-13.68-40.75-20.37-2.68-1.32-3.11-2.72-1.29-4.87,1.26-1.49,1.33-5.2,4.92-2.77q23.29,15.76,46.63,31.47Z"/>
      <path class="cls-1" d="M685.6,663.43,652.32,642.5c-4.12-2.59-8.17-5.32-12.4-7.74-2.87-1.65-2.09-3.24-.46-5.11,1.4-1.61,2.1-4.57,5.26-1.91,13.79,11.64,27.67,23.17,41.52,34.73Z"/>
      <path class="cls-1" d="M92.69,113.62c9.19,8.75,21.28,20.32,33.44,31.81,2.42,2.29.64,3.59-1,4.57-1.49.86-2.72,4.43-5.09,1.18C110.05,137.56,100.15,123.89,92.69,113.62Z"/>
      <path class="cls-1" d="M233.68,34.06c2.12,5.28,4.26,10.54,6.34,15.83,3.64,9.22,7.09,18.51,10.92,27.64,1.4,3.33.35,4.26-2.69,5.23s-4.47.76-5.24-2.7c-3.22-14.41-6.67-28.77-10-43.16a13.87,13.87,0,0,1-.15-2.59Z"/>
      <path class="cls-1" d="M511.68,46.08c-5.3,15.71-10.65,31.41-15.87,47.15-.93,2.82-2.56,2.83-4.45,1.48-1.41-1-5.34-.29-3.55-3.87,7.57-15.1,15.3-30.11,23-45.16Z"/>
      <path class="cls-1" d="M272.91,24.14c4.32,15.19,8.59,30.4,13,45.58,1.05,3.65-1.38,3.58-3.71,4.25-3,.86-4.22.12-4.59-3-1.42-12.16-3-24.31-4.57-36.46-.42-3.36-.82-6.74-1.23-10.11Z"/>
      <path class="cls-1" d="M758,432.94c-15.65.79-31.3,1.53-46.95,2.43-3.12.18-4.32-.87-3.93-3.94.27-2.18-.61-4.94,3.39-4.49,14.86,1.68,29.73,3.22,44.59,4.85a25.83,25.83,0,0,1,3,.68Z"/>
      <path class="cls-1" d="M125.3,87.56c9.72,12.08,19.37,24.21,29.21,36.19,2.16,2.63.84,3.82-1.28,4.87-1.59.79-3.2,3.94-5.19.51q-11.91-20.47-23.75-41Z"/>
      <path class="cls-1" d="M472.63,35c-3.4,15.13-6.89,30.24-10.12,45.4-.82,3.83-2.87,2.72-5.1,2-2-.63-4.4-.78-3.05-4.15,5.85-14.55,11.56-29.15,17.32-43.73Z"/>
      <path class="cls-1" d="M65.09,140.91c11.56,9.55,23.07,19.16,34.7,28.63,2.63,2.15.83,3.45-.6,4.65s-2.41,4.52-5,1.57q-15.07-17-30.06-34.08Z"/>
      <path class="cls-1" d="M353.21,18.07c1.21,15.06,2.37,30.12,3.67,45.18.28,3.23-1.41,3.61-3.88,3.46-2.07-.12-4.56.55-4.27-3,1.23-15.2,2.39-30.4,3.57-45.6Z"/>
      <path class="cls-1" d="M749.9,352.73c-14.77,3.78-29.55,7.53-44.3,11.37-3.8,1-3.06-2.07-3.5-3.82s-1.36-4,2-4.31c15.2-1.37,30.4-2.84,45.59-4.27Z"/>
      <path class="cls-1" d="M709.38,239.75c-12.14,7.58-24.3,15.13-36.41,22.76-2.89,1.82-3.45-.53-4.13-2.21s-3.49-3.65.22-5.17l39.85-16.29Z"/>
      <path class="cls-1" d="M689.17,205.37C678,214,666.86,222.5,655.79,231.17c-3.43,2.68-3.75-.75-5-2.26-1.67-2-2-3.47.88-5,12.33-6.37,24.56-13,36.82-19.46Z"/>
      <path class="cls-1" d="M715.79,587.27c-13.35-4.74-26.71-9.43-40-14.24-3.26-1.17-1.06-3.25-.34-4.76s.72-4.56,3.85-2.8q18.48,10.41,37,20.88C716.08,586.66,715.93,587,715.79,587.27Z"/>
      <path class="cls-1" d="M41.64,173.65l15.54,10.22c6.18,4.07,12.31,8.24,18.58,12.17,3.17,2,1.24,3.54-.17,5.09-1.24,1.35-1.93,4.35-4.83,1.57C60.9,193.25,50.92,183.93,41,174.56Z"/>
      <path class="cls-1" d="M736.41,314.83c-12.76,4.78-25.54,9.5-38.27,14.37-3.22,1.23-3.36-1.13-3.64-2.92s-2.67-4.27,1.28-5q20.1-3.78,40.21-7.59Z"/>
      <path class="cls-1" d="M155.59,670.32a7.58,7.58,0,0,1-7.48,7.1,7.05,7.05,0,0,1-6.77-7.6c.36-4.2,2.75-6.61,7-6.7A7.11,7.11,0,0,1,155.59,670.32Z"/>
      <path class="cls-1" d="M517.46,379C513.84,456,475.18,512.57,409.63,551.52a103.86,103.86,0,0,1-26.48,11c-3.69,1-4.66,2.8-4.82,6.42-.81,19.88-2,39.76-5.24,59.44a24.5,24.5,0,0,1-2.88,8.72c-3.35-10.1-3.93-19.34-4.59-28.49-3.62-50.59-3.5-101.27-3.2-152a18.83,18.83,0,0,1,1.56-7.38c1.51-3.52,4-5.48,7.94-5.48s6.4,2.08,7.87,5.57a24.38,24.38,0,0,1,1.46,10.12q-.83,39.36-1.61,78.72c-.06,2.83,0,5.65,0,9.68,9.24-5.46,17.88-10.24,26.21-15.52,49-31.14,81.57-74.37,91-132.15,9.27-56.64-6.4-105.84-52.92-141.88-41.42-32.07-97.3-32.36-136.88-2.5a95.19,95.19,0,0,0-9.29,8l0,0a97.25,97.25,0,0,0-20.57,28.59l0,0c0,.1-.09.2-.12.28-25.72,54.36,5.29,116.7,62,123.88,39.88,5.05,76.42-22.61,82.16-61.37,5.93-40-30.5-72.75-68-61.06-34.41,10.71-47.52,52-26.36,83a33,33,0,0,1,2.77,4.49c-13.57-12.84-17.12-26.7-17.83-35.49a14.37,14.37,0,0,0,.11-2.6c-.08-2.09-.05-4.18.07-6.23a0,0,0,0,1,0,0c0-.06,0-.1,0-.13v0h0a58.09,58.09,0,0,1,41.49-51.75c26.86-7.91,55.16,3.17,69.92,27.39,17.46,28.67,11.32,68.18-14.48,93-46,44.25-121.84,28.29-147.87-31.13-22-50.12-2.64-109.33,45.38-139.11,46.57-28.87,107.38-25,151.78,10.79C500.33,280.34,520,325.77,517.46,379Z"/>
      <path class="cls-1" d="M312,337.23v0Z"/>
    </g>
    <path class="cls-1" d="M1079.81,867.12a6.87,6.87,0,0,0-.47-.94c-.19-.32-.28-.41-.28-.29q-1.51-2.07-3-3.87t-3-3.69l-4.15-4.53-4.16-4.54q-1.32-1.32-2.73-2.64a19.42,19.42,0,0,0-2.93-2.27q-3-1.7-5.86-3.5c-1.88-1.2-3.84-2.42-5.85-3.68l-5.1-3.4-2.27-1.71h-.18a1.07,1.07,0,0,0-.38-.47,1.38,1.38,0,0,1-.38-.28c-.13-.13-.19-.22-.19-.28s-.06-.16-.19-.29a33.18,33.18,0,0,1-2-4.44q-.86-2.37-1.79-4.63a109.29,109.29,0,0,1-3.4-12.57c-.89-4.22-1.7-8.47-2.46-12.75a11.58,11.58,0,0,1-.28-1.52,13.83,13.83,0,0,0-.29-1.51,275.44,275.44,0,0,1-3-35.05q-.37-17.49,0-35.25c0-4.16,0-8.34.1-12.57s.09-8.41.09-12.57a3.77,3.77,0,0,0-.94-2.17c-.63-.82-1.14-1.48-1.51-2-1.14-1.51-2.3-3-3.5-4.44s-2.49-2.87-3.87-4.26a12.89,12.89,0,0,0-1.13-1.32,11.75,11.75,0,0,1-1.13-1.32h46.26c.13,0-.12-.45-.75-1.34s-.88-1.28-.76-1.15a39,39,0,0,0-4.53-5.36,32.3,32.3,0,0,0-4.72-5.17c-.26-.26-.63-.6-1.13-1a2.17,2.17,0,0,0-1.33-.67H930.24c-.07,0-.07.07,0,.19H847.8a1.33,1.33,0,0,0-.65-.19H776.33c-.07,0-.07.07,0,.19H693.91a1.45,1.45,0,0,0-.67-.2H400.34q-.19,0,.09.48l.57,1a7.53,7.53,0,0,0,.56.86c.19.26.29.33.29.2a42.24,42.24,0,0,0,4.53,5.55c.75.89,1.54,1.75,2.36,2.58l2.36,2.4c.25.25.63.6,1.13,1.05a2.17,2.17,0,0,0,1.32.67h15.11q-.37,16.07-.47,31.75T429,745.7a275.8,275.8,0,0,0,4.53,34.77q.94,5.67,2.46,11.34A111.34,111.34,0,0,0,439.62,803a63.09,63.09,0,0,0,5.66,11.44,91.63,91.63,0,0,0,7.56,10.3q4.34,5.47,9.06,10.48t9.82,9.74c1.51,1.51,3,2.92,4.63,4.25s3.24,2.61,5,3.87q5.47,4.15,11.14,7.75t11.33,7c.51.26.76.29.76.1a2.09,2.09,0,0,0-.19-.76,5.89,5.89,0,0,0-.47-.94c-.19-.32-.28-.41-.28-.29q-1.51-2.07-3-3.87t-3-3.69l-4.15-4.53-4.16-4.54q-1.32-1.32-2.73-2.64a19.42,19.42,0,0,0-2.93-2.27q-3-1.7-5.86-3.5c-1.88-1.2-3.84-2.42-5.85-3.68l-5.1-3.4-2.27-1.71h-.18a1.07,1.07,0,0,0-.38-.47,1.38,1.38,0,0,1-.38-.28c-.13-.13-.19-.22-.19-.28s-.06-.16-.19-.29a33.18,33.18,0,0,1-2-4.44q-.86-2.37-1.79-4.63a111.36,111.36,0,0,1-3.4-12.57c-.89-4.22-1.7-8.47-2.46-12.75a11.58,11.58,0,0,1-.28-1.52,13.83,13.83,0,0,0-.29-1.51,275.44,275.44,0,0,1-3-35.05q-.37-17.49,0-35.25c0-4.16,0-8.34.1-12.57s.09-8.41.09-12.57a3.77,3.77,0,0,0-.94-2.17c-.63-.82-1.14-1.48-1.51-2-1.14-1.51-2.3-3-3.5-4.44s-2.48-2.87-3.87-4.26a12.89,12.89,0,0,0-1.13-1.32,11.75,11.75,0,0,1-1.13-1.32H605.23c-.17,7.47-.28,14.87-.37,22.22-.51-.34-.9-.46-1.13-.3a52.21,52.21,0,0,1-14,4.72,121.29,121.29,0,0,1-14.63,1.8q-7.47.48-14.92.47a146.24,146.24,0,0,0-14.83.76,72.62,72.62,0,0,0-13.31,2.36,39.14,39.14,0,0,0-12.18,5.77,2.87,2.87,0,0,0,.94,2.07,12.91,12.91,0,0,1,2.08,3.22,1.81,1.81,0,0,1,.47.66,1.81,1.81,0,0,0,.47.66c0,.13.13.32.38.57.63,1.13,1.2,2.26,1.7,3.4l1.51,3.4a66.62,66.62,0,0,1,3.78,13,50.34,50.34,0,0,1,.47,8.22,32.47,32.47,0,0,1-1.23,8.22,27.39,27.39,0,0,1-3.4,7.47,21.09,21.09,0,0,1-5.85,6,24.3,24.3,0,0,1-13.32,4.06,52.64,52.64,0,0,1-13.88-1.6q-2.07-.57-4-1.14a22.91,22.91,0,0,1-3.78-1.51,19.69,19.69,0,0,1-.75-2.46c-.64-2-1.2-4-1.7-6s-.95-4.1-1.33-6.24c-.37-2.77-.66-5.51-.85-8.22s-.41-5.45-.66-8.22a57.69,57.69,0,0,1-.47-5.86,25.9,25.9,0,0,0-.85-5.86,1.29,1.29,0,0,1-.38-.94,2.56,2.56,0,0,1-.56-.85,2.54,2.54,0,0,0-.57-.85,43,43,0,0,0-2.93-4.07c-1.07-1.32-2.1-2.61-3.11-3.87q-5.48-5.86-11-11.53a18,18,0,0,0-3.58-2.65c-.13-.25-.51-.37-1.14-.37v.56a5.71,5.71,0,0,0,.95,1.61c.37.44.75.91,1.13,1.42a2,2,0,0,0,.19.94c.25,2.15.44,4.25.57,6.33s.25,4.19.37,6.33c.26,3,.54,6.05.85,9.08A83,83,0,0,0,461.9,744a63.55,63.55,0,0,0,2.55,9.16,62,62,0,0,0,3.87,8.6,78.64,78.64,0,0,0,6.7,9.92q3.69,4.64,7.65,9.17,4.15,4.35,8.5,8.69a67,67,0,0,0,9.26,7.75A50.61,50.61,0,0,0,511,802a80.64,80.64,0,0,0,12.65,2.83,41.69,41.69,0,0,0,9.35-.28,23.61,23.61,0,0,0,8.78-3.12,20,20,0,0,0,6.14-5.58,27.33,27.33,0,0,0,3.68-7.27,33,33,0,0,0,1.61-8.22,39.9,39.9,0,0,0-.28-8.22,57.14,57.14,0,0,0-3.88-14.84,75.27,75.27,0,0,0-7.27-13.51A37.57,37.57,0,0,1,554,738.14a78.23,78.23,0,0,1,13.32-2.27,145.3,145.3,0,0,1,14.73-.75q7.37,0,14.73-.38c2.79-.15,5.56-.42,8.33-.81.14,3.92.31,7.84.54,11.77a274,274,0,0,0,4.54,34.77q.93,5.67,2.45,11.34A114,114,0,0,0,616.19,803a63.09,63.09,0,0,0,5.66,11.44,92.89,92.89,0,0,0,7.56,10.3q4.33,5.47,9.06,10.48t9.82,9.74c1.51,1.51,3.06,2.92,4.63,4.25s3.24,2.61,5,3.87q5.46,4.15,11.14,7.75t11.33,7c.5.26.75.29.75.1a2.09,2.09,0,0,0-.19-.76,5.89,5.89,0,0,0-.47-.94c-.19-.32-.28-.41-.28-.29q-1.51-2.07-3-3.87t-3-3.69L670,853.8c-1.39-1.51-2.77-3-4.15-4.54-.89-.88-1.8-1.76-2.74-2.64a18.94,18.94,0,0,0-2.93-2.27q-3-1.7-5.85-3.5c-1.89-1.2-3.84-2.42-5.86-3.68l-5.1-3.4-2.26-1.71h-.19a1.07,1.07,0,0,0-.38-.47,1.54,1.54,0,0,1-.38-.28c-.12-.13-.19-.22-.19-.28s-.06-.16-.18-.29a32,32,0,0,1-2-4.44q-.84-2.37-1.79-4.63a111.36,111.36,0,0,1-3.4-12.57q-1.32-6.33-2.46-12.75a13.51,13.51,0,0,1-.28-1.52,13.76,13.76,0,0,0-.28-1.51,273.62,273.62,0,0,1-3-35.05q-.39-17.49,0-35.25c0-4.16,0-8.34.09-12.57s.1-8.41.1-12.57a3.79,3.79,0,0,0-.95-2.17l-1.51-2c-1.13-1.51-2.3-3-3.49-4.44s-2.49-2.87-3.88-4.26a11.75,11.75,0,0,0-1.13-1.32,12.89,12.89,0,0,1-1.13-1.32h36.07q-.39,16.07-.47,31.75t.85,31.56a272.18,272.18,0,0,0,4.53,34.77q.95,5.67,2.45,11.34A116.74,116.74,0,0,0,661.7,803a62.49,62.49,0,0,0,5.67,11.44,91.54,91.54,0,0,0,7.55,10.3q4.35,5.47,9.07,10.48t9.82,9.74c1.51,1.51,3.05,2.92,4.62,4.25s3.24,2.61,5,3.87q5.47,4.15,11.14,7.75t11.33,7c.5.26.76.29.76.1a2.31,2.31,0,0,0-.19-.76,7,7,0,0,0-.48-.94c-.18-.32-.28-.41-.28-.29-1-1.38-2-2.67-3-3.87s-2-2.43-3-3.69l-4.16-4.53-4.15-4.54c-.88-.88-1.8-1.76-2.74-2.64a18.47,18.47,0,0,0-2.93-2.27q-3-1.7-5.85-3.5c-1.89-1.2-3.84-2.42-5.86-3.68l-5.09-3.4-2.27-1.71h-.19a1,1,0,0,0-.38-.47,1.5,1.5,0,0,1-.37-.28c-.13-.13-.19-.22-.19-.28s-.07-.16-.19-.29a32,32,0,0,1-2-4.44q-.84-2.37-1.79-4.63a111.36,111.36,0,0,1-3.4-12.57q-1.32-6.33-2.45-12.75a11.62,11.62,0,0,1-.29-1.52,13.76,13.76,0,0,0-.28-1.51,275.44,275.44,0,0,1-3-35.05q-.39-17.49,0-35.25c0-4.16,0-8.34.09-12.57s.1-8.41.1-12.57a3.79,3.79,0,0,0-.95-2.17l-1.51-2c-1.13-1.51-2.3-3-3.49-4.44s-2.49-2.87-3.87-4.26a12.92,12.92,0,0,0-1.14-1.32,14.28,14.28,0,0,1-1.13-1.32h46.22a1.59,1.59,0,0,0,.73.19h97.52q-.39,16-.47,31.56-.08,12.58.53,25.31a6,6,0,0,0-1.19-.55c-1.39-.26-2.77-.54-4.16-.86s-2.77-.66-4.15-1q-9.45-2.44-18.6-5.38T758,726q-9.43-2.64-19.07-4.63a80.92,80.92,0,0,0-19.45-1.6,53.6,53.6,0,0,0-7.65.94,31.85,31.85,0,0,0-7.46,2.46,24.87,24.87,0,0,0-10.2,10.2,31.52,31.52,0,0,0-3.11,9.08,54,54,0,0,0-.85,9.63,48.89,48.89,0,0,0,.56,9.55,33,33,0,0,0,2.84,9.16,44.24,44.24,0,0,0,3.58,6.24,67.2,67.2,0,0,0,4.35,5.67,120.72,120.72,0,0,0,12.84,14.17c1,1,2,2.05,3.12,3.12A25.3,25.3,0,0,0,721,803a29.63,29.63,0,0,0,13.41,5.86,30.27,30.27,0,0,0,12.56-.76,28.65,28.65,0,0,0,11.23-5.85,21.55,21.55,0,0,0,6.61-9.83,18.46,18.46,0,0,0,1-6.71,28.45,28.45,0,0,0-1-6.9,29.73,29.73,0,0,0-3.4-7.56,31,31,0,0,0-2-3.12l-2.17-2.93c-1.39-1.63-2.77-3.21-4.16-4.72s-2.77-3-4.15-4.54q-1.51-1.7-3.21-3.4a43.93,43.93,0,0,0-3.59-3.21,14.92,14.92,0,0,0-1.42-1,1.56,1.56,0,0,0-.66-.28c-.12,0-.06.25.19.75a51.81,51.81,0,0,1,2.36,5,22,22,0,0,1,1.42,5.2,29.61,29.61,0,0,1,.09,6.23,15.37,15.37,0,0,1-1.79,5.86,21,21,0,0,1-7.93,9.07,27.44,27.44,0,0,1-10.58,4.63,30.66,30.66,0,0,1-11.52.29,1.09,1.09,0,0,0-.19-.76,53.5,53.5,0,0,1-.56-10.11A44.9,44.9,0,0,1,713.07,764,26.52,26.52,0,0,1,721,750.42a24,24,0,0,1,6.7-4.15,31.64,31.64,0,0,1,7.65-2.08,57.07,57.07,0,0,1,8.12-.57q4.15,0,7.93.38,5.86.75,11.62,1.89c3.84.75,7.65,1.64,11.42,2.64q9.64,2.65,19,5.58,6.3,2,12.73,3.8c.83,7.52,2,15,3.42,22.56q.95,5.67,2.45,11.34A116.74,116.74,0,0,0,815.61,803a62.49,62.49,0,0,0,5.67,11.44,91.54,91.54,0,0,0,7.55,10.3q4.35,5.47,9.07,10.48t9.82,9.74c1.51,1.51,3,2.92,4.62,4.25s3.24,2.61,5,3.87q5.48,4.15,11.14,7.75t11.33,7c.5.26.76.29.76.1a2.31,2.31,0,0,0-.19-.76,6.87,6.87,0,0,0-.47-.94c-.19-.32-.29-.41-.29-.29-1-1.38-2-2.67-3-3.87s-2-2.43-3-3.69l-4.15-4.53-4.16-4.54c-.88-.88-1.79-1.76-2.74-2.64a18.87,18.87,0,0,0-2.92-2.27q-3-1.7-5.86-3.5c-1.89-1.2-3.84-2.42-5.85-3.68l-5.1-3.4-2.27-1.71h-.19a1,1,0,0,0-.38-.47,1.5,1.5,0,0,1-.37-.28c-.13-.13-.19-.22-.19-.28s-.07-.16-.19-.29a30.82,30.82,0,0,1-2-4.44q-.86-2.37-1.8-4.63A113.52,113.52,0,0,1,832,809.1q-1.32-6.33-2.45-12.75a13.55,13.55,0,0,1-.29-1.52,11.74,11.74,0,0,0-.28-1.51,275.44,275.44,0,0,1-3-35.05q-.37-17.49,0-35.25c0-4.16,0-8.34.09-12.57s.1-8.41.1-12.57a3.79,3.79,0,0,0-1-2.17l-1.51-2c-1.13-1.51-2.3-3-3.49-4.44s-2.49-2.87-3.87-4.26a14.28,14.28,0,0,0-1.13-1.32,12.68,12.68,0,0,1-1-1.13H958.57q-.37,16-.47,31.56-.08,12.58.53,25.3a6.63,6.63,0,0,0-1.19-.54c-1.39-.26-2.77-.54-4.16-.86s-2.77-.66-4.15-1q-9.45-2.44-18.6-5.38T911.93,726q-9.45-2.64-19.08-4.63a80.88,80.88,0,0,0-19.45-1.6,53.6,53.6,0,0,0-7.65.94,31.85,31.85,0,0,0-7.46,2.46,24.79,24.79,0,0,0-10.19,10.2,31.55,31.55,0,0,0-3.12,9.08,54,54,0,0,0-.85,9.63,48.91,48.91,0,0,0,.57,9.55,32.6,32.6,0,0,0,2.83,9.16,43.35,43.35,0,0,0,3.59,6.24,65.09,65.09,0,0,0,4.34,5.67,121.61,121.61,0,0,0,12.84,14.17l3.12,3.12a25.91,25.91,0,0,0,3.49,2.93,29.68,29.68,0,0,0,13.41,5.86,30.27,30.27,0,0,0,12.56-.76,28.69,28.69,0,0,0,11.24-5.85,21.71,21.71,0,0,0,6.61-9.83,18.46,18.46,0,0,0,1-6.71,28.94,28.94,0,0,0-1-6.9,30.44,30.44,0,0,0-3.4-7.56,32.86,32.86,0,0,0-2-3.12c-.69-.94-1.41-1.92-2.17-2.93-1.39-1.63-2.77-3.21-4.15-4.72l-4.16-4.54q-1.51-1.7-3.21-3.4a43.93,43.93,0,0,0-3.59-3.21,16.59,16.59,0,0,0-1.41-1A1.66,1.66,0,0,0,894,748q-.19,0,.18.75a54.39,54.39,0,0,1,2.37,5,21.92,21.92,0,0,1,1.41,5.2,30.32,30.32,0,0,1,.1,6.23,15.39,15.39,0,0,1-1.8,5.86,21,21,0,0,1-7.93,9.07,27.38,27.38,0,0,1-10.58,4.63,30.66,30.66,0,0,1-11.52.29,1.15,1.15,0,0,0-.18-.76,52.68,52.68,0,0,1-.57-10.11A44.9,44.9,0,0,1,867,764a26.52,26.52,0,0,1,7.93-13.61,23.89,23.89,0,0,1,6.71-4.15,31.44,31.44,0,0,1,7.64-2.08,57.07,57.07,0,0,1,8.12-.57q4.15,0,7.94.38,5.85.75,11.61,1.89c3.84.75,7.65,1.64,11.43,2.64q9.63,2.65,19,5.58c4.19,1.31,8.44,2.57,12.72,3.8.83,7.52,2,15,3.42,22.56q.94,5.67,2.46,11.34A113.92,113.92,0,0,0,969.52,803a62.49,62.49,0,0,0,5.67,11.44,92.8,92.8,0,0,0,7.55,10.3q4.35,5.47,9.07,10.48t9.82,9.74c1.51,1.51,3,2.92,4.62,4.25s3.25,2.61,5,3.87q5.47,4.15,11.14,7.75t11.33,7c.5.26.76.29.76.1a2.31,2.31,0,0,0-.19-.76,6.87,6.87,0,0,0-.47-.94c-.19-.32-.29-.41-.29-.29q-1.5-2.07-3-3.87c-1-1.2-2-2.43-3-3.69l-4.15-4.53-4.16-4.54c-.88-.88-1.79-1.76-2.74-2.64a18.87,18.87,0,0,0-2.92-2.27q-3-1.7-5.86-3.5c-1.89-1.2-3.84-2.42-5.85-3.68l-5.1-3.4-2.27-1.71h-.19a1,1,0,0,0-.37-.47,1.38,1.38,0,0,1-.38-.28c-.13-.13-.19-.22-.19-.28s-.07-.16-.19-.29a30.82,30.82,0,0,1-2-4.44q-.85-2.37-1.8-4.63A113.52,113.52,0,0,1,986,809.1q-1.32-6.33-2.45-12.75a13.55,13.55,0,0,1-.29-1.52,11.74,11.74,0,0,0-.28-1.51,275.44,275.44,0,0,1-3-35.05q-.37-17.49,0-35.25c0-4.16,0-8.34.1-12.57s.09-8.41.09-12.57a3.79,3.79,0,0,0-1-2.17l-1.51-2q-1.7-2.26-3.49-4.44T970.28,685a14.28,14.28,0,0,0-1.13-1.32,11.21,11.21,0,0,1-1-1.13h35.91q-.37,16-.47,31.56t.85,31.56a275.8,275.8,0,0,0,4.53,34.77q.94,5.67,2.46,11.34A111.34,111.34,0,0,0,1015,803a63.09,63.09,0,0,0,5.66,11.44,92.89,92.89,0,0,0,7.56,10.3q4.34,5.47,9.06,10.48t9.82,9.74c1.51,1.51,3,2.92,4.63,4.25s3.24,2.61,5,3.87q5.48,4.15,11.14,7.75t11.33,7c.51.26.76.29.76.1A2.09,2.09,0,0,0,1079.81,867.12ZM702.87,781l-.19-.38.38.38Zm153.91,0-.19-.38.38.38Z"/>
  </g>
</svg>
